# Created by Metasequoia

v 50.000000 300.000000 -50.000000
v 50.000000 200.000000 -50.000000
v 50.000000 100.000000 -50.000000
v 50.000000 0.000000 -50.000000
v -50.000000 300.000000 -50.000000
v -50.000000 200.000000 -50.000000
v -50.000000 100.000000 -50.000000
v -50.000000 0.000000 -50.000000
v -50.000000 300.000000 50.000000
v -50.000000 200.000000 50.000000
v -50.000000 100.000000 50.000000
v -50.000000 0.000000 50.000000
v 50.000000 300.000000 50.000000
v 50.000000 200.000000 50.000000
v 50.000000 100.000000 50.000000
v 50.000000 0.000000 50.000000
# 16 vertices

vt 0.23043 0.77809
vt 0.42043 0.77809
vt 0.42043 0.58809
vt 0.23043 0.58809
vt 0.42043 0.39809
vt 0.23043 0.39809
vt 0.42043 0.20809
vt 0.23043 0.20809
vt 0.61043 0.77809
vt 0.61043 0.58809
vt 0.61043 0.39809
vt 0.61043 0.20809
vt 0.80043 0.77809
vt 0.80043 0.58809
vt 0.80043 0.39809
vt 0.80043 0.20809
vt 0.04043 0.77809
vt 0.04043 0.58809
vt 0.04043 0.39809
vt 0.04043 0.20809
vt 0.23043 0.96809
vt 0.42043 0.96809
vt 0.42043 0.01809
vt 0.23043 0.01809
# 24 texture vertices

vn 0.00000 0.00000 -1.00000
vn -1.00000 0.00000 0.00000
vn 0.00000 0.00000 1.00000
vn 1.00000 0.00000 0.00000
vn 0.00000 1.00000 0.00000
vn 0.00000 -1.00000 0.00000
# 6 normal vertices

f 2/4/1 6/3/1 5/2/1 1/1/1
f 3/6/1 7/5/1 6/3/1 2/4/1
f 4/8/1 8/7/1 7/5/1 3/6/1
f 6/3/2 10/10/2 9/9/2 5/2/2
f 7/5/2 11/11/2 10/10/2 6/3/2
f 8/7/2 12/12/2 11/11/2 7/5/2
f 10/10/3 14/14/3 13/13/3 9/9/3
f 11/11/3 15/15/3 14/14/3 10/10/3
f 12/12/3 16/16/3 15/15/3 11/11/3
f 14/18/4 2/4/4 1/1/4 13/17/4
f 15/19/4 3/6/4 2/4/4 14/18/4
f 16/20/4 4/8/4 3/6/4 15/19/4
f 1/1/5 5/2/5 9/22/5 13/21/5
f 16/24/6 12/23/6 8/7/6 4/8/6
# 14 elements

