# Created by Metasequoia

v 20.000000 0.000000 10.000000
v -20.000000 0.000000 10.000000
v 20.000000 0.000000 -10.000000
v -20.879999 0.000000 -10.000000
v 20.000000 10.000000 0.000000
v -20.000000 10.000000 0.000000
v 20.000000 -10.000000 -0.000000
v -20.000000 -10.000000 0.000000
# 8 vertices

vt 0.00000 1.00000
vt 1.00000 1.00000
vt 1.00000 0.00000
vt 0.00000 0.00000
# 4 texture vertices

vn 0.00000 1.00000 0.00000
vn 0.00000 0.00000 -1.00000
vn 0.00000 -1.00000 0.00000
vn 0.00000 0.00000 1.00000
# 4 normal vertices

f 3/4/1 4/3/1 2/2/1 1/1/1
f 1/1/3 2/2/3 4/3/3 3/4/3
f 7/4/2 8/3/2 6/2/2 5/1/2
f 5/1/4 6/2/4 8/3/4 7/4/4
# 4 elements

